<svg xmlns="http://www.w3.org/2000/svg" width="1920" height="1080"><circle cx="629" cy="78" r="2" fill="#fff"/><circle cx="529" cy="644" r="3" fill="#fff"/><circle cx="1639" cy="535" r="1" fill="#faf9e8"/><circle cx="227" cy="807" r="3" fill="#fff"/><circle cx="501" cy="695" r="3" fill="#faf6b1"/><circle cx="1892" cy="179" r="3" fill="#fcfad2"/><circle cx="1690" cy="753" r="2" fill="#fcfad2"/><circle cx="1774" cy="435" r="2" fill="#faf6b1"/><circle cx="763" cy="893" r="1" fill="#faf6b1"/><circle cx="1776" cy="703" r="3" fill="#fff"/><circle cx="1787" cy="965" r="3" fill="#faf6b1"/><circle cx="1172" cy="696" r="1" fill="#fff"/><circle cx="1187" cy="703" r="3" fill="#faf9e8"/><circle cx="309" cy="693" r="2" fill="#faf9e8"/><circle cx="1915" cy="585" r="3" fill="#faf6b1"/><circle cx="459" cy="909" r="2" fill="#fcfad2"/><circle cx="77" cy="119" r="2" fill="#fcfad2"/><circle cx="1375" cy="6" r="1" fill="#faf6b1"/><circle cx="271" cy="354" r="1" fill="#fff"/><circle cx="1438" cy="392" r="2" fill="#fcfad2"/><circle cx="591" cy="1067" r="1" fill="#faf6b1"/><circle cx="1121" cy="1061" r="1" fill="#fcfad2"/><circle cx="1472" cy="513" r="1" fill="#faf9e8"/><circle cx="1409" cy="39" r="3" fill="#faf6b1"/><circle cx="425" cy="800" r="1" fill="#fff"/><circle cx="475" cy="586" r="1" fill="#fff"/><circle cx="941" cy="817" r="3" fill="#fff"/><circle cx="1752" cy="632" r="3" fill="#faf6b1"/><circle cx="1812" cy="629" r="2" fill="#faf6b1"/><circle cx="1546" cy="681" r="3" fill="#faf6b1"/><circle cx="1033" cy="667" r="2" fill="#faf6b1"/><circle cx="1690" cy="788" r="2" fill="#faf6b1"/><circle cx="489" cy="628" r="1" fill="#faf9e8"/><circle cx="1147" cy="634" r="2" fill="#faf9e8"/><circle cx="1112" cy="623" r="2" fill="#fcfad2"/><circle cx="784" cy="233" r="3" fill="#faf9e8"/><circle cx="996" cy="532" r="1" fill="#fcfad2"/><circle cx="1371" cy="786" r="2" fill="#fff"/><circle cx="158" cy="883" r="3" fill="#faf6b1"/><circle cx="1226" cy="868" r="1" fill="#faf6b1"/><circle cx="834" cy="162" r="3" fill="#fff"/><circle cx="627" cy="36" r="3" fill="#fff"/><circle cx="933" cy="1012" r="3" fill="#faf9e8"/><circle cx="1892" cy="680" r="3" fill="#fff"/><circle cx="1672" cy="74" r="1" fill="#fcfad2"/><circle cx="1073" cy="413" r="3" fill="#faf9e8"/><circle cx="495" cy="573" r="1" fill="#faf6b1"/><circle cx="376" cy="640" r="1" fill="#fcfad2"/><circle cx="1353" cy="946" r="3" fill="#fff"/><circle cx="863" cy="283" r="3" fill="#fff"/><circle cx="413" cy="877" r="2" fill="#fff"/><circle cx="1618" cy="197" r="3" fill="#faf9e8"/><circle cx="1555" cy="427" r="2" fill="#fcfad2"/><circle cx="420" cy="1006" r="1" fill="#fff"/><circle cx="469" cy="165" r="3" fill="#fff"/><circle cx="137" cy="123" r="3" fill="#fcfad2"/><circle cx="1166" cy="484" r="3" fill="#faf6b1"/><circle cx="195" cy="161" r="2" fill="#fcfad2"/><circle cx="1574" cy="602" r="3" fill="#fcfad2"/><circle cx="725" cy="246" r="2" fill="#faf9e8"/><circle cx="1702" cy="282" r="3" fill="#faf9e8"/><circle cx="229" cy="145" r="2" fill="#faf9e8"/><circle cx="1702" cy="874" r="1" fill="#faf9e8"/><circle cx="667" cy="170" r="1" fill="#faf6b1"/><circle cx="789" cy="973" r="3" fill="#faf9e8"/><circle cx="249" cy="315" r="1" fill="#fcfad2"/><circle cx="17" cy="950" r="2" fill="#faf9e8"/><circle cx="1582" cy="174" r="1" fill="#fff"/><circle cx="987" cy="653" r="1" fill="#faf6b1"/><circle cx="76" cy="410" r="1" fill="#faf6b1"/><circle cx="550" cy="643" r="3" fill="#faf6b1"/><circle cx="162" cy="573" r="1" fill="#fcfad2"/><circle cx="731" cy="987" r="2" fill="#faf9e8"/><circle cx="1348" cy="52" r="3" fill="#fcfad2"/><circle cx="1874" cy="577" r="1" fill="#faf9e8"/><circle cx="728" cy="694" r="3" fill="#fcfad2"/><circle cx="554" cy="109" r="3" fill="#fff"/><circle cx="1615" cy="850" r="2" fill="#fcfad2"/><circle cx="532" cy="82" r="2" fill="#fcfad2"/><circle cx="1094" cy="37" r="3" fill="#fcfad2"/><circle cx="1680" cy="198" r="1" fill="#fff"/><circle cx="821" cy="432" r="1" fill="#faf9e8"/><circle cx="1704" cy="219" r="2" fill="#fff"/><circle cx="1772" cy="548" r="1" fill="#fff"/><circle cx="1706" cy="669" r="3" fill="#faf9e8"/><circle cx="1882" cy="764" r="3" fill="#faf6b1"/><circle cx="371" cy="859" r="1" fill="#fff"/><circle cx="1760" cy="886" r="2" fill="#faf9e8"/><circle cx="1913" cy="58" r="2" fill="#fcfad2"/><circle cx="1214" cy="690" r="2" fill="#faf6b1"/><circle cx="1460" cy="815" r="1" fill="#fff"/><circle cx="634" cy="303" r="2" fill="#faf6b1"/><circle cx="524" cy="630" r="2" fill="#fff"/><circle cx="1421" cy="850" r="3" fill="#fff"/><circle cx="1777" cy="182" r="2" fill="#fff"/><circle cx="1324" cy="943" r="1" fill="#faf9e8"/><circle cx="1747" cy="548" r="1" fill="#fff"/><circle cx="987" cy="670" r="2" fill="#fcfad2"/><circle cx="230" cy="109" r="1" fill="#fcfad2"/><circle cx="1044" cy="549" r="2" fill="#faf9e8"/><circle cx="245" cy="585" r="2" fill="#fcfad2"/><circle cx="999" cy="935" r="3" fill="#faf9e8"/><circle cx="1659" cy="959" r="3" fill="#fcfad2"/><circle cx="1724" cy="665" r="3" fill="#fcfad2"/><circle cx="1052" cy="285" r="2" fill="#faf6b1"/><circle cx="1211" cy="824" r="2" fill="#faf9e8"/><circle cx="1762" cy="727" r="1" fill="#faf6b1"/><circle cx="411" cy="890" r="3" fill="#fff"/><circle cx="852" cy="123" r="3" fill="#fff"/><circle cx="1877" cy="625" r="1" fill="#faf9e8"/><circle cx="1888" cy="636" r="3" fill="#fcfad2"/><circle cx="1016" cy="282" r="1" fill="#faf6b1"/><circle cx="1316" cy="1069" r="3" fill="#fcfad2"/><circle cx="344" cy="510" r="2" fill="#fcfad2"/><circle cx="540" cy="687" r="3" fill="#faf9e8"/><circle cx="197" cy="94" r="3" fill="#fff"/><circle cx="207" cy="499" r="1" fill="#fcfad2"/><circle cx="554" cy="277" r="2" fill="#faf9e8"/><circle cx="271" cy="291" r="1" fill="#fcfad2"/><circle cx="1486" cy="73" r="3" fill="#faf6b1"/><circle cx="19" cy="317" r="2" fill="#faf9e8"/><circle cx="488" cy="23" r="2" fill="#fff"/><circle cx="1069" cy="853" r="3" fill="#faf6b1"/><circle cx="752" cy="413" r="2" fill="#fff"/><circle cx="1172" cy="314" r="3" fill="#fcfad2"/><circle cx="1516" cy="172" r="2" fill="#fcfad2"/><circle cx="509" cy="887" r="3" fill="#fcfad2"/><circle cx="678" cy="510" r="3" fill="#faf6b1"/><circle cx="1744" cy="333" r="2" fill="#fcfad2"/><circle cx="1618" cy="527" r="3" fill="#faf9e8"/><circle cx="651" cy="226" r="2" fill="#fcfad2"/><circle cx="130" cy="972" r="3" fill="#faf9e8"/><circle cx="293" cy="51" r="3" fill="#faf9e8"/><circle cx="1386" cy="876" r="3" fill="#faf6b1"/><circle cx="698" cy="908" r="2" fill="#faf6b1"/><circle cx="339" cy="147" r="3" fill="#fcfad2"/><circle cx="1806" cy="914" r="3" fill="#faf9e8"/><circle cx="739" cy="786" r="3" fill="#fcfad2"/><circle cx="475" cy="71" r="1" fill="#fcfad2"/><circle cx="1152" cy="136" r="1" fill="#faf9e8"/><circle cx="324" cy="773" r="2" fill="#fff"/><circle cx="150" cy="940" r="3" fill="#fcfad2"/><circle cx="1689" cy="80" r="2" fill="#fcfad2"/><circle cx="1097" cy="892" r="1" fill="#fff"/><circle cx="1698" cy="810" r="3" fill="#fcfad2"/><circle cx="978" cy="623" r="3" fill="#fcfad2"/><circle cx="662" cy="50" r="3" fill="#faf6b1"/><circle cx="1694" cy="947" r="3" fill="#faf6b1"/><circle cx="531" cy="733" r="2" fill="#faf6b1"/><circle cx="947" cy="986" r="1" fill="#fcfad2"/><circle cx="1364" cy="781" r="1" fill="#fff"/><circle cx="365" cy="407" r="2" fill="#fff"/><circle cx="1699" cy="846" r="1" fill="#fcfad2"/><circle cx="248" cy="387" r="3" fill="#fff"/><circle cx="1599" cy="505" r="3" fill="#faf9e8"/><circle cx="584" cy="373" r="2" fill="#faf6b1"/><circle cx="427" cy="1063" r="1" fill="#faf9e8"/><circle cx="988" cy="763" r="2" fill="#faf9e8"/><circle cx="1835" cy="120" r="2" fill="#fcfad2"/><circle cx="1352" cy="1027" r="1" fill="#faf6b1"/><circle cx="182" cy="134" r="2" fill="#faf9e8"/><circle cx="356" cy="331" r="1" fill="#faf9e8"/><circle cx="1909" cy="53" r="3" fill="#fcfad2"/><circle cx="1412" cy="937" r="2" fill="#fff"/><circle cx="798" cy="840" r="1" fill="#faf9e8"/><circle cx="1643" cy="445" r="2" fill="#faf9e8"/><circle cx="1145" cy="334" r="2" fill="#faf9e8"/><circle cx="1655" cy="514" r="3" fill="#faf9e8"/><circle cx="68" cy="828" r="3" fill="#fcfad2"/><circle cx="242" cy="305" r="1" fill="#fff"/><circle cx="893" cy="534" r="1" fill="#faf9e8"/><circle cx="1155" cy="804" r="2" fill="#faf6b1"/><circle cx="1564" cy="949" r="2" fill="#faf9e8"/><circle cx="1087" cy="169" r="1" fill="#faf9e8"/><circle cx="718" cy="224" r="1" fill="#fcfad2"/><circle cx="486" cy="896" r="3" fill="#fff"/><circle cx="1807" cy="557" r="3" fill="#faf6b1"/><circle cx="900" cy="403" r="1" fill="#fcfad2"/><circle cx="1834" cy="129" r="3" fill="#faf6b1"/><circle cx="927" cy="216" r="1" fill="#faf6b1"/><circle cx="1017" cy="1002" r="1" fill="#fcfad2"/><circle cx="1479" cy="973" r="2" fill="#fff"/><circle cx="1543" cy="862" r="1" fill="#fcfad2"/><circle cx="297" cy="1017" r="1" fill="#faf9e8"/><circle cx="1713" cy="477" r="2" fill="#faf9e8"/><circle cx="1050" cy="1072" r="3" fill="#faf6b1"/><circle cx="751" cy="1077" r="1" fill="#faf9e8"/><circle cx="117" cy="396" r="2" fill="#faf9e8"/><circle cx="1296" cy="389" r="1" fill="#fcfad2"/><circle cx="550" cy="119" r="1" fill="#faf9e8"/><circle cx="1785" cy="299" r="1" fill="#faf9e8"/><circle cx="560" cy="377" r="3" fill="#faf9e8"/><circle cx="1822" cy="591" r="1" fill="#fcfad2"/><circle cx="1638" cy="1006" r="2" fill="#faf9e8"/><circle cx="831" cy="638" r="1" fill="#faf9e8"/><circle cx="1313" cy="135" r="1" fill="#fff"/><circle cx="1149" cy="319" r="3" fill="#fcfad2"/><circle cx="1258" cy="787" r="1" fill="#faf6b1"/><circle cx="359" cy="819" r="3" fill="#faf6b1"/><circle cx="1152" cy="848" r="3" fill="#faf6b1"/></svg>