<svg xmlns="http://www.w3.org/2000/svg" width="1920" height="1080"><circle cx="1281" cy="965" r="3" fill="#fff"/><circle cx="637" cy="227" r="3" fill="#fff"/><circle cx="552" cy="855" r="3" fill="#fff"/><circle cx="678" cy="645" r="1" fill="#fff"/><circle cx="427" cy="338" r="1" fill="#fff"/><circle cx="1383" cy="264" r="3" fill="#fff"/><circle cx="910" cy="180" r="2" fill="#fff"/><circle cx="403" cy="452" r="3" fill="#fff"/><circle cx="726" cy="685" r="1" fill="#fff"/><circle cx="138" cy="486" r="1" fill="#fff"/><circle cx="1515" cy="1004" r="1" fill="#fff"/><circle cx="1874" cy="722" r="1" fill="#fff"/><circle cx="550" cy="518" r="2" fill="#fff"/><circle cx="1856" cy="397" r="1" fill="#fff"/><circle cx="248" cy="148" r="3" fill="#fff"/><circle cx="513" cy="468" r="2" fill="#fff"/><circle cx="749" cy="484" r="3" fill="#fff"/><circle cx="268" cy="116" r="1" fill="#fff"/><circle cx="475" cy="216" r="1" fill="#fff"/><circle cx="163" cy="856" r="3" fill="#fff"/><circle cx="332" cy="338" r="2" fill="#fff"/><circle cx="1465" cy="736" r="2" fill="#fff"/><circle cx="1293" cy="349" r="1" fill="#fff"/><circle cx="497" cy="937" r="2" fill="#fff"/><circle cx="140" cy="241" r="1" fill="#fff"/><circle cx="547" cy="799" r="2" fill="#fff"/><circle cx="44" cy="793" r="1" fill="#fff"/><circle cx="355" cy="768" r="1" fill="#fff"/><circle cx="158" cy="513" r="3" fill="#fff"/><circle cx="1143" cy="680" r="1" fill="#fff"/><circle cx="173" cy="661" r="3" fill="#fff"/><circle cx="533" cy="50" r="1" fill="#fff"/><circle cx="1476" cy="174" r="3" fill="#fff"/><circle cx="1337" cy="515" r="2" fill="#fff"/><circle cx="810" cy="81" r="3" fill="#fff"/><circle cx="1614" cy="888" r="3" fill="#fff"/><circle cx="1042" cy="1022" r="1" fill="#fff"/><circle cx="36" cy="527" r="3" fill="#fff"/><circle cx="142" cy="120" r="3" fill="#fff"/><circle cx="760" cy="645" r="3" fill="#fff"/><circle cx="896" cy="70" r="3" fill="#fff"/><circle cx="1112" cy="1078" r="2" fill="#fff"/><circle cx="272" cy="1066" r="3" fill="#fff"/><circle cx="412" cy="913" r="3" fill="#fff"/><circle cx="1158" cy="962" r="2" fill="#fff"/><circle cx="1605" cy="649" r="1" fill="#fff"/><circle cx="177" cy="633" r="3" fill="#fff"/><circle cx="1199" cy="124" r="1" fill="#fff"/><circle cx="1195" cy="1013" r="1" fill="#fff"/><circle cx="619" cy="673" r="1" fill="#fff"/><circle cx="713" cy="59" r="3" fill="#fff"/><circle cx="1293" cy="493" r="1" fill="#fff"/><circle cx="156" cy="763" r="2" fill="#fff"/><circle cx="1490" cy="839" r="2" fill="#fff"/><circle cx="1228" cy="4" r="2" fill="#fff"/><circle cx="548" cy="625" r="2" fill="#fff"/><circle cx="121" cy="346" r="3" fill="#fff"/><circle cx="390" cy="480" r="3" fill="#fff"/><circle cx="1549" cy="243" r="1" fill="#fff"/><circle cx="1826" cy="785" r="1" fill="#fff"/><circle cx="397" cy="742" r="3" fill="#fff"/><circle cx="1015" cy="53" r="1" fill="#fff"/><circle cx="1552" cy="972" r="3" fill="#fff"/><circle cx="1622" cy="643" r="1" fill="#fff"/><circle cx="1436" cy="844" r="3" fill="#fff"/><circle cx="1564" cy="44" r="1" fill="#fff"/><circle cx="705" cy="531" r="1" fill="#fff"/><circle cx="252" cy="894" r="3" fill="#fff"/><circle cx="536" cy="572" r="3" fill="#fff"/><circle cx="637" cy="784" r="3" fill="#fff"/><circle cx="498" cy="410" r="1" fill="#fff"/><circle cx="710" cy="908" r="3" fill="#fff"/><circle cx="1311" cy="817" r="3" fill="#fff"/><circle cx="3" cy="826" r="1" fill="#fff"/><circle cx="469" cy="758" r="1" fill="#fff"/><circle cx="577" cy="899" r="2" fill="#fff"/><circle cx="1757" cy="102" r="1" fill="#fff"/><circle cx="1865" cy="799" r="1" fill="#fff"/><circle cx="1544" cy="978" r="1" fill="#fff"/><circle cx="1028" cy="665" r="3" fill="#fff"/><circle cx="633" cy="80" r="1" fill="#fff"/><circle cx="1436" cy="662" r="2" fill="#fff"/><circle cx="402" cy="760" r="1" fill="#fff"/><circle cx="678" cy="674" r="1" fill="#fff"/><circle cx="1817" cy="847" r="1" fill="#fff"/><circle cx="1767" cy="50" r="2" fill="#fff"/><circle cx="598" cy="330" r="2" fill="#fff"/><circle cx="1466" cy="413" r="3" fill="#fff"/><circle cx="456" cy="472" r="1" fill="#fff"/><circle cx="1143" cy="779" r="3" fill="#fff"/><circle cx="1878" cy="25" r="2" fill="#fff"/><circle cx="1047" cy="789" r="2" fill="#fff"/><circle cx="968" cy="84" r="3" fill="#fff"/><circle cx="1519" cy="614" r="1" fill="#fff"/><circle cx="1366" cy="378" r="2" fill="#fff"/><circle cx="1357" cy="102" r="1" fill="#fff"/><circle cx="916" cy="143" r="3" fill="#fff"/><circle cx="1694" cy="894" r="3" fill="#fff"/><circle cx="1374" cy="231" r="3" fill="#fff"/><circle cx="16" cy="740" r="2" fill="#fff"/><circle cx="1664" cy="1048" r="3" fill="#fff"/><circle cx="596" cy="234" r="3" fill="#fff"/><circle cx="919" cy="20" r="3" fill="#fff"/><circle cx="1507" cy="349" r="2" fill="#fff"/><circle cx="718" cy="601" r="1" fill="#fff"/><circle cx="1529" cy="347" r="1" fill="#fff"/><circle cx="1017" cy="245" r="1" fill="#fff"/><circle cx="1235" cy="310" r="2" fill="#fff"/><circle cx="1208" cy="988" r="2" fill="#fff"/><circle cx="201" cy="36" r="2" fill="#fff"/><circle cx="1690" cy="280" r="2" fill="#fff"/><circle cx="688" cy="64" r="3" fill="#fff"/><circle cx="1498" cy="265" r="3" fill="#fff"/><circle cx="358" cy="61" r="2" fill="#fff"/><circle cx="1710" cy="690" r="1" fill="#fff"/><circle cx="1104" cy="538" r="1" fill="#fff"/><circle cx="992" cy="910" r="2" fill="#fff"/><circle cx="705" cy="862" r="3" fill="#fff"/><circle cx="1143" cy="562" r="2" fill="#fff"/><circle cx="1327" cy="836" r="1" fill="#fff"/><circle cx="554" cy="123" r="3" fill="#fff"/><circle cx="1474" cy="383" r="3" fill="#fff"/><circle cx="1586" cy="788" r="3" fill="#fff"/><circle cx="837" cy="976" r="1" fill="#fff"/><circle cx="922" cy="1005" r="2" fill="#fff"/><circle cx="1336" cy="624" r="2" fill="#fff"/><circle cx="1326" cy="320" r="3" fill="#fff"/><circle cx="1323" cy="643" r="3" fill="#fff"/><circle cx="862" cy="45" r="1" fill="#fff"/><circle cx="851" cy="947" r="2" fill="#fff"/><circle cx="232" cy="273" r="3" fill="#fff"/><circle cx="1226" cy="1039" r="2" fill="#fff"/><circle cx="1091" cy="446" r="2" fill="#fff"/><circle cx="1828" cy="617" r="2" fill="#fff"/><circle cx="1770" cy="354" r="2" fill="#fff"/><circle cx="170" cy="236" r="3" fill="#fff"/><circle cx="977" cy="785" r="3" fill="#fff"/><circle cx="275" cy="362" r="3" fill="#fff"/><circle cx="278" cy="1069" r="1" fill="#fff"/><circle cx="1181" cy="56" r="1" fill="#fff"/><circle cx="1088" cy="569" r="2" fill="#fff"/><circle cx="535" cy="924" r="3" fill="#fff"/><circle cx="392" cy="782" r="3" fill="#fff"/><circle cx="680" cy="630" r="3" fill="#fff"/><circle cx="1175" cy="859" r="1" fill="#fff"/><circle cx="728" cy="212" r="1" fill="#fff"/><circle cx="195" cy="709" r="2" fill="#fff"/><circle cx="198" cy="697" r="1" fill="#fff"/><circle cx="1204" cy="416" r="2" fill="#fff"/><circle cx="1031" cy="1042" r="3" fill="#fff"/><circle cx="1225" cy="104" r="2" fill="#fff"/><circle cx="890" cy="963" r="1" fill="#fff"/><circle cx="495" cy="682" r="2" fill="#fff"/><circle cx="1763" cy="637" r="1" fill="#fff"/><circle cx="1380" cy="213" r="3" fill="#fff"/><circle cx="288" cy="680" r="1" fill="#fff"/><circle cx="747" cy="649" r="3" fill="#fff"/><circle cx="9" cy="943" r="2" fill="#fff"/><circle cx="1538" cy="45" r="2" fill="#fff"/><circle cx="168" cy="961" r="1" fill="#fff"/><circle cx="1519" cy="767" r="2" fill="#fff"/><circle cx="1095" cy="1033" r="3" fill="#fff"/><circle cx="1274" cy="202" r="3" fill="#fff"/><circle cx="1294" cy="1013" r="3" fill="#fff"/><circle cx="952" cy="375" r="2" fill="#fff"/><circle cx="1550" cy="155" r="1" fill="#fff"/><circle cx="681" cy="797" r="1" fill="#fff"/><circle cx="1518" cy="506" r="3" fill="#fff"/><circle cx="142" cy="887" r="3" fill="#fff"/><circle cx="405" cy="659" r="1" fill="#fff"/><circle cx="1525" cy="600" r="1" fill="#fff"/><circle cx="1440" cy="124" r="1" fill="#fff"/><circle cx="1330" cy="407" r="1" fill="#fff"/><circle cx="1627" cy="77" r="3" fill="#fff"/><circle cx="214" cy="568" r="1" fill="#fff"/><circle cx="102" cy="320" r="1" fill="#fff"/><circle cx="386" cy="779" r="2" fill="#fff"/><circle cx="1107" cy="160" r="2" fill="#fff"/><circle cx="426" cy="541" r="2" fill="#fff"/><circle cx="1176" cy="647" r="1" fill="#fff"/><circle cx="1501" cy="904" r="1" fill="#fff"/><circle cx="631" cy="156" r="2" fill="#fff"/><circle cx="1493" cy="225" r="1" fill="#fff"/><circle cx="651" cy="372" r="1" fill="#fff"/><circle cx="1501" cy="668" r="2" fill="#fff"/><circle cx="620" cy="170" r="2" fill="#fff"/><circle cx="413" cy="819" r="1" fill="#fff"/><circle cx="59" cy="283" r="3" fill="#fff"/><circle cx="1892" cy="13" r="3" fill="#fff"/><circle cx="309" cy="232" r="3" fill="#fff"/><circle cx="1070" cy="912" r="3" fill="#fff"/><circle cx="525" cy="903" r="2" fill="#fff"/><circle cx="444" cy="137" r="1" fill="#fff"/><circle cx="1757" cy="1040" r="2" fill="#fff"/><circle cx="1885" cy="643" r="3" fill="#fff"/><circle cx="1256" cy="618" r="2" fill="#fff"/><circle cx="1422" cy="1058" r="2" fill="#fff"/><circle cx="1311" cy="125" r="3" fill="#fff"/><circle cx="985" cy="404" r="3" fill="#fff"/><circle cx="109" cy="522" r="2" fill="#fff"/></svg>