<?xml version="1.0" encoding="UTF-8" standalone="no"?>
<!-- Uploaded to: SVG Repo, www.svgrepo.com, Generator: SVG Repo Mixer Tools -->

<svg
   fill="rgba(218, 240, 245, 0.4)"
   height="140.0885"
   width="65.94647"
   version="1.1"
   id="Capa_1"
   viewBox="0 0 572.37574 701.09859"
   xml:space="preserve"
   xmlns="http://www.w3.org/2000/svg"
   xmlns:svg="http://www.w3.org/2000/svg"><defs
   id="defs14" />
<g
   id="g14"
   transform="matrix(0.9417079,-0.54834115,0.54369531,0.94975473,-195.67453,247.28025)">
	<path
   d="m 19.76,353.753 c 0.867,0.325 1.756,0.479 2.63,0.479 3.037,0 5.896,-1.859 7.024,-4.871 23.194,-61.908 69.347,-129.381 129.957,-189.991 2.929,-2.929 2.929,-7.678 0,-10.606 -2.929,-2.929 -7.678,-2.929 -10.606,0 -62.093,62.092 -109.467,131.463 -133.397,195.334 -1.453,3.879 0.513,8.202 4.392,9.655 z"
   id="path1" />
	<path
   d="m 6.665,413.005 c 0.284,0.032 0.565,0.047 0.845,0.047 3.768,0 7.015,-2.833 7.444,-6.665 0.683,-6.088 1.735,-12.475 3.129,-18.985 0.867,-4.05 -1.713,-8.037 -5.764,-8.904 -4.049,-0.865 -8.036,1.714 -8.904,5.764 -1.497,6.993 -2.63,13.875 -3.367,20.454 -0.462,4.117 2.501,7.828 6.617,8.289 z"
   id="path2" />
	<path
   d="m 16.083,445.315 c -0.833,-4.057 -4.801,-6.672 -8.856,-5.836 -4.057,0.834 -6.67,4.799 -5.836,8.856 3.549,17.266 10.973,31.645 22.064,42.736 1.464,1.465 3.384,2.197 5.303,2.197 1.919,0 3.839,-0.732 5.303,-2.197 2.929,-2.929 2.929,-7.677 0,-10.606 -8.98,-8.981 -15.029,-20.807 -17.978,-35.15 z"
   id="path3" />
	<path
   d="m 490.83,171.44 c -3.831,-1.579 -8.214,0.245 -9.792,4.075 -24.321,58.988 -69.027,122.786 -125.881,179.641 -2.929,2.929 -2.929,7.678 0,10.606 1.464,1.464 3.384,2.197 5.303,2.197 1.919,0 3.839,-0.732 5.303,-2.197 58.221,-58.221 104.085,-123.755 129.142,-184.529 1.579,-3.83 -0.246,-8.214 -4.075,-9.793 z"
   id="path4" />
	<path
   d="m 507.861,101.528 c -4.117,-0.468 -7.827,2.501 -8.289,6.617 -0.861,7.673 -2.305,15.789 -4.292,24.123 -0.961,4.029 1.526,8.074 5.556,9.035 0.585,0.14 1.17,0.206 1.746,0.206 3.392,0 6.468,-2.317 7.289,-5.762 2.129,-8.927 3.679,-17.652 4.608,-25.931 0.461,-4.115 -2.501,-7.826 -6.618,-8.288 z"
   id="path5" />
	<path
   d="m 498.443,69.211 c 0.729,3.548 3.853,5.991 7.338,5.991 0.5,0 1.009,-0.05 1.518,-0.155 4.057,-0.834 6.67,-4.799 5.836,-8.856 -3.55,-17.267 -10.973,-31.645 -22.064,-42.736 -2.929,-2.929 -7.678,-2.929 -10.606,0 -2.929,2.929 -2.929,7.678 0,10.606 8.981,8.98 15.029,20.806 17.978,35.15 z"
   id="path6" />
	<path
   d="m 287.202,374.597 c -90.916,74.396 -181.876,103.421 -216.285,69.013 -2.929,-2.929 -7.678,-2.929 -10.606,0 -2.929,2.929 -2.929,7.678 0,10.606 12.482,12.482 30.009,18.765 51.771,18.765 14.374,0 30.598,-2.743 48.428,-8.251 41.679,-12.877 90.046,-40.764 136.191,-78.524 3.206,-2.623 3.678,-7.348 1.055,-10.554 -2.623,-3.206 -7.349,-3.679 -10.554,-1.055 z"
   id="path7" />
	<path
   d="m 333.042,333.042 c -4.847,4.847 -9.828,9.671 -14.804,14.337 -3.021,2.833 -3.174,7.58 -0.34,10.601 1.476,1.574 3.472,2.37 5.472,2.37 1.839,0 3.682,-0.672 5.129,-2.029 5.093,-4.776 10.19,-9.712 15.15,-14.672 2.929,-2.929 2.929,-7.678 0,-10.606 -2.929,-2.93 -7.678,-2.93 -10.607,-0.001 z"
   id="path8" />
	<path
   d="m 222.58,141.625 c 1.67,0 3.352,-0.555 4.745,-1.696 90.917,-74.396 181.878,-103.42 216.285,-69.012 2.929,2.929 7.678,2.929 10.606,0 2.929,-2.929 2.929,-7.678 0,-10.606 -20.727,-20.727 -55.375,-24.362 -100.2,-10.514 -41.679,12.877 -90.046,40.764 -136.19,78.524 -3.206,2.623 -3.678,7.348 -1.055,10.554 1.483,1.811 3.637,2.75 5.809,2.75 z"
   id="path9" />
	<path
   d="m 176.181,183.68 c 1.919,0 3.839,-0.732 5.303,-2.197 4.85,-4.85 9.831,-9.673 14.804,-14.336 3.022,-2.833 3.174,-7.58 0.341,-10.601 -2.833,-3.021 -7.58,-3.174 -10.601,-0.341 -5.09,4.773 -10.188,9.709 -15.15,14.672 -2.929,2.929 -2.929,7.678 0,10.606 1.464,1.465 3.383,2.197 5.303,2.197 z"
   id="path10" />
	<path
   d="m 207.767,406.9 c 1.199,0 2.416,-0.288 3.545,-0.896 36.445,-19.596 74.56,-48.805 110.223,-84.468 41.977,-41.976 75.262,-87.776 93.725,-128.963 19.462,-43.416 20.208,-77.299 2.1,-95.407 -2.929,-2.929 -7.678,-2.929 -10.606,0 -2.929,2.929 -2.929,7.678 0,10.606 13.2,13.2 11.312,41.873 -5.181,78.665 -17.735,39.563 -49.926,83.774 -90.644,124.492 -34.643,34.643 -71.546,62.951 -106.72,81.864 -3.648,1.961 -5.016,6.509 -3.054,10.157 1.354,2.518 3.94,3.95 6.612,3.95 z"
   id="path11" />
	<path
   d="m 203.597,203.597 c 31.393,-31.393 65.103,-57.915 97.485,-76.7 3.583,-2.078 4.803,-6.668 2.724,-10.25 -2.079,-3.584 -6.67,-4.803 -10.25,-2.724 -33.491,19.428 -68.266,46.77 -100.565,79.068 -41.976,41.977 -75.262,87.776 -93.725,128.963 -19.462,43.416 -20.208,77.299 -2.1,95.407 1.464,1.465 3.384,2.197 5.303,2.197 1.919,0 3.839,-0.732 5.303,-2.197 2.929,-2.929 2.929,-7.678 0,-10.606 -13.2,-13.2 -11.312,-41.873 5.181,-78.665 17.735,-39.563 49.927,-83.775 90.644,-124.493 z"
   id="path12" />
	<path
   d="m 203.532,325.597 c 6.715,0 15.437,-3.253 26.317,-9.781 14.433,-8.66 31.288,-22.335 47.459,-38.508 16.172,-16.172 29.848,-33.027 38.508,-47.459 10.744,-17.907 12.615,-29.963 5.719,-36.858 -19.481,-19.482 -77.739,37.648 -84.318,44.227 -6.579,6.579 -63.709,64.834 -44.227,84.318 2.706,2.705 6.205,4.061 10.542,4.061 z m 10.049,-36.441 c 8.11,-12.682 20.271,-27.36 34.243,-41.333 13.972,-13.972 28.651,-26.133 41.333,-34.243 12.102,-7.74 18.826,-9.534 21.424,-9.635 -0.102,2.598 -1.896,9.323 -9.635,21.424 -8.11,12.681 -20.271,27.36 -34.243,41.332 -13.972,13.972 -28.651,26.133 -41.332,34.244 -12.102,7.739 -18.827,9.534 -21.424,9.635 0.1,-2.598 1.895,-9.323 9.634,-21.424 z"
   id="path13" />
	<path
   d="m 163.943,381.385 c 34.958,0 90.969,-37.452 135.48,-81.963 56.171,-56.171 101.095,-130.646 73.711,-158.029 -27.383,-27.384 -101.858,17.541 -158.029,73.711 -56.171,56.171 -101.095,130.646 -73.711,158.029 5.683,5.685 13.391,8.252 22.549,8.252 z m -4.215,-68.646 c 13.571,-27.143 37.004,-58.05 65.983,-87.028 28.979,-28.978 59.886,-52.412 87.028,-65.983 15.145,-7.572 28.413,-11.51 37.853,-11.51 5.302,0 9.396,1.243 11.936,3.782 7.059,7.059 4.097,26.136 -7.729,49.788 -13.571,27.143 -37.004,58.05 -65.983,87.029 -28.979,28.979 -59.886,52.412 -87.028,65.983 -23.651,11.826 -42.729,14.787 -49.788,7.729 -7.059,-7.061 -4.098,-26.139 7.728,-49.79 z"
   id="path14" />
</g>
<g
   id="g15"
   transform="matrix(-0.3368145,1.7041471,-1.9101699,-0.30048712,607.92476,232.7279)"><g
     id="g3"
     transform="translate(-137.40474,-37.949)">
	
	
</g><g
     id="g6"
     transform="translate(-137.40474,-37.949)">
	
	
</g><g
     id="g11"
     transform="translate(-137.40474,-37.949)">
	
	
</g><path
     style="fill:#afb2ad"
     d="M 160.68326,11.314 H 60.997256 c -8.157,0 -14.77,5.998 -14.77,13.397 v 90.433 c 0,7.399 6.612,13.397 14.77,13.397 h 99.686004 c 8.156,0 14.769,-5.998 14.769,-13.397 V 24.711 c -0.001,-7.399 -6.613,-13.397 -14.769,-13.397 z"
     id="path15" /><path
     style="fill:#c0c9bd"
     d="M 160.68326,16.22 H 60.997256 c -8.157,0 -14.77,6.612 -14.77,14.769 v 99.687 c 0,8.156 6.612,14.768 14.77,14.768 h 99.686004 c 8.156,0 14.769,-6.612 14.769,-14.768 V 30.989 c -0.001,-8.156 -6.613,-14.769 -14.769,-14.769 z"
     id="path16" /><g
     id="g18"
     transform="translate(-137.40474,-37.949)">
	<path
   style="fill:#dfeadc"
   d="m 323.375,138.564 c -3.051,-19.511 -40.789,-30.416 -72.722,-30.416 h -4.817 c -31.933,0 -70.535,12.123 -72.722,30.416 -1.649,13.804 0.138,51.02 1.116,68.458 19.929,17.014 45.785,27.291 74.043,27.291 28.296,0 54.18,-10.303 74.121,-27.356 1.182,-17.253 3.271,-53.737 0.981,-68.393 z"
   id="path17" />
	<path
   id="path18"
   style="fill:#dfeadc"
   d="m 169.68733,162.35348 c 4.70656,25.54745 13.66666,64.43167 18.27345,88.33614 0.0672,-1e-5 0.006,3.3e-4 0.096,2.9e-4 0.31298,0.003 0.62705,0.0675 0.9381,0.0326 0.85524,-0.14321 1.98821,-0.10467 2.91894,-0.062 -0.14352,-0.0276 0.25884,-0.0505 0.34714,-0.0612 1.3285,-0.0997 2.66252,-0.0601 3.99254,-0.0213 0.77132,0.0608 1.39947,0.0519 2.1674,0.0705 0.94647,0.0589 1.45749,0.0378 2.47306,0.0879 1.2543,0.0989 2.50912,0.1849 3.76234,0.29846 1.13053,0.0498 2.2348,0.3756 3.35807,0.46815 0.99589,0.2169 1.78506,0.28243 2.79881,0.44254 1.30615,0.2418 2.59918,0.50476 3.88379,0.84777 1.04665,0.32025 2.06447,0.73634 3.10951,1.06056 0.0195,0.006 0.0391,0.0113 0.0585,0.018 0.74051,0.17352 1.46581,0.37254 2.1928,0.61212 0.0964,0.0314 0.19067,0.072 0.28965,0.0941 0.0929,0.0207 -0.36398,-0.11294 -0.27169,-0.0898 0.49972,0.12522 0.94755,0.28746 1.46215,0.40269 -0.13536,-0.0353 0.60805,0.14987 0.45707,0.10883 -1.18115,-0.32066 1.54391,0.36836 0.92531,0.19724 1.29403,0.35115 1.05309,0.28533 1.21397,0.33453 0.79138,0.1334 1.55678,0.28924 2.33735,0.54604 0.21339,0.0702 0.42192,0.15378 0.63171,0.23424 0.44029,0.0573 0.57055,0.0573 1.76937,0.3104 0.008,0.002 0.0163,0.005 0.0246,0.007 0.75973,0.0823 0.94335,0.12473 1.93581,0.30565 1.03404,0.22558 0.78831,0.16161 1.82353,0.31069 0.33666,0.0305 0.78907,0.11739 1.54274,0.14125 0.92205,0.0681 1.86494,0.1336 2.79569,0.21553 -0.0562,0.0198 1.13463,0.0732 0.86687,0.0403 1.35901,-0.20886 2.72682,-0.16392 4.09339,-0.0982 0.98543,0.0688 1.96414,0.19911 2.94605,0.30095 -0.23912,-0.0515 -0.0334,-0.0531 0.15922,-0.0736 0.70813,-0.0827 1.41177,-0.20116 2.11518,-0.31638 1.76565,-0.34692 3.56301,-0.33335 5.35248,-0.30295 1.40621,-0.0485 2.81031,0.0138 4.21201,0.12816 0.84134,0.0229 1.68017,0.18478 2.52147,0.17409 0.83758,-0.007 1.67105,0.0725 2.50794,0.0485 0.52839,-0.0351 1.05337,-0.1044 1.5778,-0.17611 1.10183,-0.15968 2.21545,-0.095 3.32103,-0.1883 0.92755,-0.11639 1.85166,-0.22885 2.78292,-0.31727 0.86757,-0.038 1.73389,-0.07 2.59758,-0.16159 0.78934,-0.089 1.57362,-0.21714 2.35769,-0.34315 0.99966,-0.16344 1.99718,-0.33542 2.99521,-0.50846 0.73189,-0.12746 1.46369,-0.25607 2.1954,-0.38465 1.16585,-0.57359 2.39396,-0.99992 3.639,-1.36367 1.14109,-0.31786 2.30225,-0.55223 3.46405,-0.77932 1.04023,-0.19977 2.08262,-0.38642 3.12524,-0.5732 1.01463,-0.18104 2.03018,-0.36003 3.04511,-0.53939 1.08716,-0.19205 2.17403,-0.38452 3.26123,-0.57628 1.74914,-0.25541 3.51733,-0.34449 5.28336,-0.3252 1.0021,-0.0302 2.00346,0.0207 3.00503,0.0285 1.30645,0.0477 2.60082,0.22071 3.89818,0.36431 6.64957,-34.0187 22.91726,-101.15504 21.05077,-113.09537 -3.05099,-19.51098 -46.91378,-30.41532 -78.84875,-30.41532 l -4.81801,-3.9e-4 c -31.93197,0 -76.79608,12.12303 -78.98108,30.41601 -0.4125,3.45099 0.84071,12.25353 2.96594,23.7894 z m 56.71901,93.83511 c 0.14531,0.0178 0.14011,0.0307 0.24755,0.0437 -0.0447,-0.008 -0.089,-0.0174 -0.13367,-0.0256 -0.0377,-0.007 -0.15191,-0.0227 -0.11388,-0.0181 z m 0.84546,0.17687 c 0.11933,0.0459 0.23935,0.0894 0.35932,0.13345 0.0222,0.008 0.0897,0.0299 0.0677,0.0213 -0.10539,-0.0416 -0.21159,-0.0799 -0.31757,-0.1199 -0.003,-0.003 -0.007,-0.006 -0.01,-0.008 -0.0332,-0.009 -0.0663,-0.0176 -0.0994,-0.0267 z m 52.48622,-0.96693 0.0239,-0.004 c 0.03,-0.009 0.1125,-0.0401 0.0846,-0.0297 -0.19078,0.0714 -0.009,-0.004 -0.10842,0.0339 z" />
</g><path
     style="fill:#d6e2d3"
     d="M 110.83926,0 C 83.438256,0 61.223256,18.188 61.223256,43.482 c 0,40.348 22.215,51.798 49.616004,51.798 27.404,0 49.617,-11.45 49.617,-51.798 0,-25.294 -22.213,-43.482 -49.617,-43.482 z"
     id="path19" /><path
     style="fill:#e5eae4"
     d="M 110.83926,0 C 83.438256,0 61.223256,18.188 61.223256,43.482 c 0,19.014 4.933,31.611 13.018,39.615 L 147.48026,13.654 C 138.40626,5.1 125.35126,0 110.83926,0 Z"
     id="path20" /><path
     style="fill:#9b9a8c"
     d="m 110.83926,16.22 c -21.612004,0 -39.133004,12.764 -39.133004,32.715 0,34.896 17.521,43.211 39.133004,43.211 21.613,0 39.134,-8.315 39.134,-43.211 0,-19.951 -17.521,-32.715 -39.134,-32.715 z"
     id="path21" /><path
     style="fill:#8e8d85"
     d="m 136.15326,23.373 -56.449004,56.45 c 7.149,9.449 18.435,12.323 31.135004,12.323 21.613,0 39.134,-8.315 39.134,-43.211 0,-11.037 -5.367,-19.868 -13.82,-25.562 z"
     id="path22" /><g
     id="g24"
     transform="translate(-137.40474,-37.949)">
	<path
   style="fill:#b8bcb7"
   d="m 209.666,163.538 -18.951,51.233 -6.315,19.3 c 0.452,0.183 6.666,-12.632 9.824,-18.248 6.14,-14.737 20.352,-47.02 15.442,-52.285 z"
   id="path23" />
	<path
   style="fill:#b8bcb7"
   d="m 305.778,214.772 -18.95,-51.233 c -4.911,5.264 9.301,37.548 15.441,52.286 3.158,5.615 9.372,18.431 9.824,18.248 z"
   id="path24" />
</g><g
     id="g26"
     transform="translate(-137.40474,-37.949)">
	<path
   id="path25"
   style="fill:#dfeadc"
   d="m 288.26839,166.69654 c 0,0 3.79692,11.74172 12.63392,38.25069 3.85999,11.58099 15.46929,38.33748 18.27529,46.40847 0.0467,0.1341 0.12059,0.42878 0.17415,0.60398 0.58144,0.0726 1.16317,0.1428 1.74679,0.1963 0.40131,0.032 1.18021,0.016 2.06677,0.0857 0.98615,0.0673 1.94967,0.2735 2.90905,0.49567 0.0455,-0.0549 1.90833,-0.13104 2.12785,-0.13289 0.91734,-0.0562 1.83162,0.10872 2.74778,0.0973 0.20011,-0.0126 0.3994,-0.0313 0.59786,-0.0624 1.50447,-0.18882 3.0128,-0.0798 4.51987,-0.0442 1.42005,-0.0961 2.83491,0.0311 4.23901,0.2464 0.75419,-0.0172 -0.25072,0.074 0.36804,-0.0194 0.89487,-0.12464 1.79565,-0.18422 2.69821,-0.21869 0.64366,-0.01 1.28675,-0.0528 1.92619,-0.12562 0.62345,-0.0742 1.24361,-0.17274 1.86326,-0.27319 1.22537,-0.25265 2.47741,-0.22152 3.71828,-0.30016 1.27277,-0.16591 2.55098,-0.18107 3.83209,-0.16402 0.6217,0.0544 1.24458,0.0483 1.86714,0.0558 -0.26613,-5.53231 -0.73056,-9.389 -0.73056,-9.389 -6.316,-67.37493 -27.40097,-107.46837 -27.40097,-107.46837 z" />
	<path
   id="path26"
   style="fill:#dfeadc"
   d="m 139.45257,252.14577 c 1.48232,-0.26147 2.97314,-0.18897 4.46255,-0.0833 0.23678,0.0568 0.45885,0.0722 0.65145,0.0881 0.46302,-0.11878 1.8126,-0.0434 2.50395,-0.0159 2.41595,0.27403 0.88814,0.0666 2.14723,0.27698 0.0108,0.002 -0.0206,-0.008 -0.0314,-0.0105 -0.074,-0.0136 -0.14925,-0.0224 -0.223,-0.0369 -0.38554,-0.076 0.78078,0.087 1.17105,0.13299 0.61434,0.10456 0.94826,0.11476 1.67402,0.20913 0.13522,-0.0658 2.3842,-0.0998 2.87593,-0.0828 0.61674,-0.0464 1.63501,0.0969 2.4078,0.15724 -1.72573,-0.20345 2.34434,0.20611 1.55376,0.1061 0.49193,-0.0267 1.95197,0.10004 2.73668,0.16689 1.09088,0.027 2.1746,0.13472 3.25845,0.25202 1.39594,-0.78207 2.87218,-1.39543 4.38793,-1.90163 1.10088,-0.35334 2.22544,-0.62526 3.35425,-0.87189 1.67618,-0.45758 3.35529,-0.39083 5.04632,-0.2465 3.46234,-9.30304 14.57541,-34.2926 18.25748,-45.33975 8.83798,-26.50794 12.63432,-38.24984 12.63432,-38.24984 L 168.13997,134.9388 c 0,0 -21.60117,40.44316 -27.91717,107.81902 0,0 -0.50248,3.82265 -0.77023,9.38795 z m 5.114,0.005 c -0.007,0.002 -0.0276,4.7e-4 -0.034,0.002 0.5045,0.0237 0.34223,0.0231 0.034,-0.002 z m 7.4357,0.58064 c 0.11815,0.0169 0.0726,0.004 0.22131,0.0274 -0.0149,-0.004 -0.0593,-0.0112 -0.0439,-0.0119 0.12296,-0.003 -0.0808,-0.009 -0.17739,-0.0155 z m 13.41488,0.65796 c 0.0344,0.006 0.0691,0.009 0.1035,0.015 0.006,-0.007 -9.9e-4,-0.0133 0.0442,-0.0213 -0.0297,-0.0134 -0.10555,0.0107 -0.14771,0.006 z" />
</g></g></svg>
