<?xml version="1.0" encoding="UTF-8" standalone="no"?>
<!-- Uploaded to: SVG Repo, www.svgrepo.com, Generator: SVG Repo Mixer Tools -->

<svg
   fill="rgba(218, 240, 245, 0.4)"
   height="1095.9128"
   width="889.94647"
   version="1.1"
   id="Capa_1"
   viewBox="0 0 505.34738 704.84456"
   xml:space="preserve"
   xmlns="http://www.w3.org/2000/svg"
   xmlns:svg="http://www.w3.org/2000/svg"><defs
   id="defs14" />
<g
   id="g14"
   transform="matrix(-1.0221206,-0.55127091,-0.59012158,0.95482923,717.7306,248.60145)">
	<path
   d="m 19.76,353.753 c 0.867,0.325 1.756,0.479 2.63,0.479 3.037,0 5.896,-1.859 7.024,-4.871 23.194,-61.908 69.347,-129.381 129.957,-189.991 2.929,-2.929 2.929,-7.678 0,-10.606 -2.929,-2.929 -7.678,-2.929 -10.606,0 -62.093,62.092 -109.467,131.463 -133.397,195.334 -1.453,3.879 0.513,8.202 4.392,9.655 z"
   id="path1" />
	<path
   d="m 6.665,413.005 c 0.284,0.032 0.565,0.047 0.845,0.047 3.768,0 7.015,-2.833 7.444,-6.665 0.683,-6.088 1.735,-12.475 3.129,-18.985 0.867,-4.05 -1.713,-8.037 -5.764,-8.904 -4.049,-0.865 -8.036,1.714 -8.904,5.764 -1.497,6.993 -2.63,13.875 -3.367,20.454 -0.462,4.117 2.501,7.828 6.617,8.289 z"
   id="path2" />
	<path
   d="m 16.083,445.315 c -0.833,-4.057 -4.801,-6.672 -8.856,-5.836 -4.057,0.834 -6.67,4.799 -5.836,8.856 3.549,17.266 10.973,31.645 22.064,42.736 1.464,1.465 3.384,2.197 5.303,2.197 1.919,0 3.839,-0.732 5.303,-2.197 2.929,-2.929 2.929,-7.677 0,-10.606 -8.98,-8.981 -15.029,-20.807 -17.978,-35.15 z"
   id="path3" />
	<path
   d="m 490.83,171.44 c -3.831,-1.579 -8.214,0.245 -9.792,4.075 -24.321,58.988 -69.027,122.786 -125.881,179.641 -2.929,2.929 -2.929,7.678 0,10.606 1.464,1.464 3.384,2.197 5.303,2.197 1.919,0 3.839,-0.732 5.303,-2.197 58.221,-58.221 104.085,-123.755 129.142,-184.529 1.579,-3.83 -0.246,-8.214 -4.075,-9.793 z"
   id="path4" />
	<path
   d="m 507.861,101.528 c -4.117,-0.468 -7.827,2.501 -8.289,6.617 -0.861,7.673 -2.305,15.789 -4.292,24.123 -0.961,4.029 1.526,8.074 5.556,9.035 0.585,0.14 1.17,0.206 1.746,0.206 3.392,0 6.468,-2.317 7.289,-5.762 2.129,-8.927 3.679,-17.652 4.608,-25.931 0.461,-4.115 -2.501,-7.826 -6.618,-8.288 z"
   id="path5" />
	<path
   d="m 498.443,69.211 c 0.729,3.548 3.853,5.991 7.338,5.991 0.5,0 1.009,-0.05 1.518,-0.155 4.057,-0.834 6.67,-4.799 5.836,-8.856 -3.55,-17.267 -10.973,-31.645 -22.064,-42.736 -2.929,-2.929 -7.678,-2.929 -10.606,0 -2.929,2.929 -2.929,7.678 0,10.606 8.981,8.98 15.029,20.806 17.978,35.15 z"
   id="path6" />
	<path
   d="m 287.202,374.597 c -90.916,74.396 -181.876,103.421 -216.285,69.013 -2.929,-2.929 -7.678,-2.929 -10.606,0 -2.929,2.929 -2.929,7.678 0,10.606 12.482,12.482 30.009,18.765 51.771,18.765 14.374,0 30.598,-2.743 48.428,-8.251 41.679,-12.877 90.046,-40.764 136.191,-78.524 3.206,-2.623 3.678,-7.348 1.055,-10.554 -2.623,-3.206 -7.349,-3.679 -10.554,-1.055 z"
   id="path7" />
	<path
   d="m 333.042,333.042 c -4.847,4.847 -9.828,9.671 -14.804,14.337 -3.021,2.833 -3.174,7.58 -0.34,10.601 1.476,1.574 3.472,2.37 5.472,2.37 1.839,0 3.682,-0.672 5.129,-2.029 5.093,-4.776 10.19,-9.712 15.15,-14.672 2.929,-2.929 2.929,-7.678 0,-10.606 -2.929,-2.93 -7.678,-2.93 -10.607,-0.001 z"
   id="path8" />
	<path
   d="m 222.58,141.625 c 1.67,0 3.352,-0.555 4.745,-1.696 90.917,-74.396 181.878,-103.42 216.285,-69.012 2.929,2.929 7.678,2.929 10.606,0 2.929,-2.929 2.929,-7.678 0,-10.606 -20.727,-20.727 -55.375,-24.362 -100.2,-10.514 -41.679,12.877 -90.046,40.764 -136.19,78.524 -3.206,2.623 -3.678,7.348 -1.055,10.554 1.483,1.811 3.637,2.75 5.809,2.75 z"
   id="path9" />
	<path
   d="m 176.181,183.68 c 1.919,0 3.839,-0.732 5.303,-2.197 4.85,-4.85 9.831,-9.673 14.804,-14.336 3.022,-2.833 3.174,-7.58 0.341,-10.601 -2.833,-3.021 -7.58,-3.174 -10.601,-0.341 -5.09,4.773 -10.188,9.709 -15.15,14.672 -2.929,2.929 -2.929,7.678 0,10.606 1.464,1.465 3.383,2.197 5.303,2.197 z"
   id="path10" />
	<path
   d="m 207.767,406.9 c 1.199,0 2.416,-0.288 3.545,-0.896 36.445,-19.596 74.56,-48.805 110.223,-84.468 41.977,-41.976 75.262,-87.776 93.725,-128.963 19.462,-43.416 20.208,-77.299 2.1,-95.407 -2.929,-2.929 -7.678,-2.929 -10.606,0 -2.929,2.929 -2.929,7.678 0,10.606 13.2,13.2 11.312,41.873 -5.181,78.665 -17.735,39.563 -49.926,83.774 -90.644,124.492 -34.643,34.643 -71.546,62.951 -106.72,81.864 -3.648,1.961 -5.016,6.509 -3.054,10.157 1.354,2.518 3.94,3.95 6.612,3.95 z"
   id="path11" />
	<path
   d="m 203.597,203.597 c 31.393,-31.393 65.103,-57.915 97.485,-76.7 3.583,-2.078 4.803,-6.668 2.724,-10.25 -2.079,-3.584 -6.67,-4.803 -10.25,-2.724 -33.491,19.428 -68.266,46.77 -100.565,79.068 -41.976,41.977 -75.262,87.776 -93.725,128.963 -19.462,43.416 -20.208,77.299 -2.1,95.407 1.464,1.465 3.384,2.197 5.303,2.197 1.919,0 3.839,-0.732 5.303,-2.197 2.929,-2.929 2.929,-7.678 0,-10.606 -13.2,-13.2 -11.312,-41.873 5.181,-78.665 17.735,-39.563 49.927,-83.775 90.644,-124.493 z"
   id="path12" />
	<path
   d="m 203.532,325.597 c 6.715,0 15.437,-3.253 26.317,-9.781 14.433,-8.66 31.288,-22.335 47.459,-38.508 16.172,-16.172 29.848,-33.027 38.508,-47.459 10.744,-17.907 12.615,-29.963 5.719,-36.858 -19.481,-19.482 -77.739,37.648 -84.318,44.227 -6.579,6.579 -63.709,64.834 -44.227,84.318 2.706,2.705 6.205,4.061 10.542,4.061 z m 10.049,-36.441 c 8.11,-12.682 20.271,-27.36 34.243,-41.333 13.972,-13.972 28.651,-26.133 41.333,-34.243 12.102,-7.74 18.826,-9.534 21.424,-9.635 -0.102,2.598 -1.896,9.323 -9.635,21.424 -8.11,12.681 -20.271,27.36 -34.243,41.332 -13.972,13.972 -28.651,26.133 -41.332,34.244 -12.102,7.739 -18.827,9.534 -21.424,9.635 0.1,-2.598 1.895,-9.323 9.634,-21.424 z"
   id="path13" />
	<path
   d="m 163.943,381.385 c 34.958,0 90.969,-37.452 135.48,-81.963 56.171,-56.171 101.095,-130.646 73.711,-158.029 -27.383,-27.384 -101.858,17.541 -158.029,73.711 -56.171,56.171 -101.095,130.646 -73.711,158.029 5.683,5.685 13.391,8.252 22.549,8.252 z m -4.215,-68.646 c 13.571,-27.143 37.004,-58.05 65.983,-87.028 28.979,-28.978 59.886,-52.412 87.028,-65.983 15.145,-7.572 28.413,-11.51 37.853,-11.51 5.302,0 9.396,1.243 11.936,3.782 7.059,7.059 4.097,26.136 -7.729,49.788 -13.571,27.143 -37.004,58.05 -65.983,87.029 -28.979,28.979 -59.886,52.412 -87.028,65.983 -23.651,11.826 -42.729,14.787 -49.788,7.729 -7.059,-7.061 -4.098,-26.139 7.728,-49.79 z"
   id="path14" />
</g>
<g
   id="g15"
   transform="matrix(0.43983927,1.2672253,-1.2084484,0.46123232,488.09275,126.52991)"><path
     id="path1-2"
     style="fill:#334d5c"
     d="m 178.91123,349.03189 c -1.045,0.0749 -2.09004,0.14944 -3.1349,0.22652 1.08497,-0.0138 2.16989,-0.0304 3.25482,-0.046 -0.0396,-0.0604 -0.0804,-0.12002 -0.11992,-0.18049 z" /><g
     id="g3"
     transform="translate(-137.40474,-37.949)">
	<path
   style="fill:#a5a5a5"
   d="m 212.6,416.775 c -7.951,-5.872 -21.789,-0.623 -30.908,11.725 -9.119,12.348 -15.596,20.425 -7.646,26.298 7.951,5.872 32.288,0.066 41.409,-12.282 9.118,-12.348 5.095,-19.87 -2.855,-25.741 z"
   id="path2-6" />
	<path
   style="fill:#a5a5a5"
   d="m 314.193,428.499 c -9.119,-12.348 -22.957,-17.597 -30.908,-11.725 -7.949,5.872 -11.974,13.394 -2.854,25.74 9.12,12.349 33.457,18.154 41.408,12.282 7.95,-5.871 1.474,-13.949 -7.646,-26.297 z"
   id="path3-9" />
</g><path
     style="fill:#d6e2d3"
     d="m 174.21026,310.251 -6.718,-78.956 H 53.572256 l -6.892,80.773 c 0,0 -1.969,78.9 2.117,81.298 4.085,2.398 23.812,2.339 29.154,-0.582 5.344,-2.922 20.994,-81.565 20.994,-81.565 l 7.000004,-35.614 c 0,0 1.053,-10.461 4.912,-10.461 3.861,0 4.738,10.286 4.738,10.286 l 6.318,34.739 c 0,0 14.648,79.746 20.257,82.666 5.608,2.919 28.343,3.133 31.841,-0.586 3.499,-3.72 0.199,-81.998 0.199,-81.998 z"
     id="path4-4" /><g
     id="g6"
     transform="translate(-137.40474,-37.949)">
	<path
   style="fill:#818281"
   d="m 342.529,292.218 -0.944,18.667 c 0,0 -0.333,2.741 -1.739,3.35 0,0 2.379,-0.153 2.79,-3.573 l 0.843,-18.865 z"
   id="path5-1" />
	<path
   style="fill:#818281"
   d="m 338.49,289.381 -6.106,17.78 c 0,0 -0.814,2.867 -2.451,3.104 0,0 2.437,0.398 4.136,-2.637 l 6.162,-17.718 z"
   id="path6-3" />
</g><path
     style="fill:#a5a5a5"
     d="m 220.04326,262.207 c 0,0 -2.215,-9.706 -2.714,-11.639 l -0.584,-11.572 c 0,0 -9.041,-1.786 -18.674,-4.989 0,0 -4.391,6.499 -5.535,7.104 -1.146,0.606 -3.496,5.282 -7.721,10.503 l 0.01,0.004 c -2.43,1.711 -5.102,4.018 -4.561,5.591 0,0 1.008,2.819 4.762,3.307 0,0 1.175,0.36 2.363,-0.615 l 3.608,-3.078 2.595,-3.957 -4.559,11.11 -2.191,3.873 c -0.521,1.172 0.152,2.029 0.152,2.029 1.455,2.072 5.479,2.45 5.479,2.45 3.517,-0.273 7.177,-14.903 7.177,-14.903 0,0 0.633,-1.667 1.334,-3.731 l -0.156,1.468 -5.165,17.619 c -0.173,1.11 0.707,2.02 0.707,2.02 1.945,1.851 5.856,1.567 5.856,1.567 3.037,-0.68 2.685,-10.265 2.685,-10.265 0,0 0.241,-7.584 0.768,-11.927 l -0.214,8.43 -0.27,9.795 c 0.104,1.327 1.021,1.975 1.021,1.975 2.195,1.678 5.666,0.911 5.666,0.911 1.363,-0.535 1.783,-2.738 1.838,-4.999 0.154,1.014 1.222,1.859 1.222,1.859 2.36,1.538 5.167,0.58 5.167,0.58 2.827,-1.414 -0.066,-10.52 -0.066,-10.52 z m -6.59,3.496 0.006,0.049 0.002,0.041 c -0.002,-0.029 -0.006,-0.062 -0.008,-0.09 z"
     id="path7-7" /><path
     style="fill:#818281"
     d="m 212.12726,253.848 1.406,17.911 c 0,0 -0.148,2.771 -1.503,3.438 0,0 2.348,-0.249 2.529,-3.706 z"
     id="path8-8" /><path
     style="fill:#bdc1bc"
     d="m 187.12426,237.268 2.105,3.685 28.424,-1.579 0.79,-4.737 c 0.001,-0.001 -23.686,-2.633 -31.319,2.631 z"
     id="path9-8" /><g
     id="g11"
     transform="translate(-137.40474,-37.949)">
	<path
   style="fill:#818281"
   d="m 154.573,310.886 -0.943,-18.667 -0.95,-0.421 0.843,18.865 c 0.411,3.42 2.79,3.573 2.79,3.573 -1.407,-0.609 -1.74,-3.35 -1.74,-3.35 z"
   id="path10-3" />
	<path
   style="fill:#818281"
   d="m 163.774,307.161 -6.106,-17.78 -1.739,0.529 6.162,17.718 c 1.698,3.035 4.135,2.637 4.135,2.637 -1.637,-0.237 -2.452,-3.104 -2.452,-3.104 z"
   id="path11-8" />
</g><path
     style="fill:#a5a5a5"
     d="m 36.523256,251.619 0.01,-0.004 c -4.225,-5.221 -6.575,-9.897 -7.721,-10.503 -1.145,-0.605 -5.535,-7.104 -5.535,-7.104 -9.633,3.203 -18.6740004,4.989 -18.6740004,4.989 l -0.583,11.572 c -0.5,1.933 -2.715,11.639 -2.715,11.639 0,0 -2.893,9.106 -0.065,10.521 0,0 2.807,0.958 5.167,-0.58 0,0 1.067,-0.845 1.222,-1.859 0.055,2.26 0.475,4.463 1.838,4.999 0,0 3.4710004,0.767 5.6670004,-0.911 0,0 0.915,-0.648 1.02,-1.975 l -0.27,-9.795 -0.214,-8.43 c 0.526,4.343 0.768,11.927 0.768,11.927 0,0 -0.352,9.584 2.685,10.265 0,0 3.911,0.284 5.856,-1.567 0,0 0.88,-0.91 0.707,-2.02 l -5.165,-17.619 -0.156,-1.468 c 0.701,2.064 1.335,3.731 1.335,3.731 0,0 3.659,14.63 7.176,14.903 0,0 4.023,-0.378 5.479,-2.45 0,0 0.672,-0.857 0.151,-2.029 l -2.191,-3.873 -4.559,-11.11 2.596,3.957 3.607,3.078 c 1.189,0.976 2.363,0.615 2.363,0.615 3.754,-0.488 4.762,-3.307 4.762,-3.307 0.54,-1.574 -2.131,-3.881 -4.561,-5.592 z m -28.6360004,14.174 0.002,-0.041 0.006,-0.049 c -0.002,0.028 -0.006,0.061 -0.008,0.09 z"
     id="path12-1" /><path
     style="fill:#818281"
     d="m 7.8152556,271.759 1.407,-17.911 -2.433,17.643 c 0.181,3.458 2.528,3.706 2.528,3.706 -1.354,-0.667 -1.502,-3.438 -1.502,-3.438 z"
     id="path13-5" /><path
     style="fill:#bdc1bc"
     d="m 2.9042556,234.636 0.79,4.737 28.4240004,1.579 2.105,-3.685 c -7.632,-5.263 -31.3190004,-2.631 -31.3190004,-2.631 z"
     id="path14-3" /><path
     id="path15"
     style="fill:#afb2ad"
     d="m 57.308454,32.771745 c 0.262522,0.0178 0.526126,0.0022 0.78899,0.01709 -0.0039,-6.85e-4 -0.0077,-0.0022 -0.01158,-0.0029 -0.08523,-0.0026 -1.038339,-0.03185 -0.777412,-0.01421 z" /><path
     id="path16"
     style="fill:#c0c9bd"
     d="m 57.308454,32.771745 c 0.262522,0.0178 0.526126,0.0022 0.78899,0.01709 -0.0039,-6.85e-4 -0.0077,-0.0022 -0.01158,-0.0029 -0.08523,-0.0026 -1.038339,-0.03185 -0.777412,-0.01421 z" /><g
     id="g18"
     transform="translate(-137.40474,-37.949)">
	<path
   id="path17"
   style="fill:#dfeadc"
   d="m 220.88831,230.97711 c 8.77537,2.16337 17.94179,3.33606 27.38523,3.33606 8.14172,0 16.07421,-0.87944 23.73243,-2.50079 -2.35052,0.0198 -4.70145,0.0185 -7.05082,-0.079 -4.13881,-0.0233 -8.27742,-0.051 -12.41531,-0.14417 -4.15452,-0.0906 -8.30946,-0.13285 -12.46407,-0.22537 -4.36125,-0.0335 -8.72331,-0.0675 -13.0829,-0.19128 -2.03414,-0.0844 -4.06953,-0.1351 -6.10456,-0.19544 z" />
	<path
   id="path18"
   style="fill:#dfeadc"
   d="m 183.62897,229.54081 c 3.84433,18.20829 6.96073,33.79602 7.21715,39.70274 0,0 26.87593,8.68678 54.48487,8.68678 27.64694,0 60.1282,-8.75229 60.1282,-8.75229 0.2955,-5.59023 3.24032,-20.06146 6.88689,-37.12448 -2.57099,0.0262 -5.14617,0.4091 -7.72346,0.31265 -3.17842,0.15771 -6.35189,0.14082 -9.5322,0.11376 -2.82237,-0.0571 -5.63577,-0.26018 -8.45783,-0.31554 -3.3008,-0.0278 -6.58853,-0.23727 -9.88157,-0.40275 -3.93185,0.0428 -7.86537,0.13475 -11.79587,-0.0283 -4.13881,-0.0233 -8.27742,-0.051 -12.41531,-0.14417 -4.15452,-0.0906 -8.30946,-0.13285 -12.46407,-0.22537 -4.36125,-0.0335 -8.72331,-0.0675 -13.0829,-0.19128 -3.95902,-0.16433 -7.92073,-0.25643 -11.88122,-0.3798 -3.81625,-0.19555 -7.63684,-0.31784 -11.44493,-0.64001 -2.86989,-0.26364 -5.75081,-0.40248 -8.62691,-0.56986 -3.39531,-0.055 -6.77785,-0.14978 -10.17431,0.002 -0.41228,-0.0118 -0.82428,-0.0305 -1.23653,-0.044 z" />
</g><g
     id="g24"
     transform="translate(-137.40474,-37.949)">
	<path
   id="path23"
   style="fill:#b8bcb7"
   d="m 184.39958,234.07159 c 0.17582,0.0712 1.23312,-1.84635 2.63355,-4.51971 -0.38686,0.007 -0.77336,0.006 -1.16047,0.0177 z" />
	<path
   id="path24"
   style="fill:#b8bcb7"
   d="m 310.83383,232.1271 c 0.68048,1.23384 1.14805,1.99156 1.25956,1.94641 l -0.64627,-1.97706 c -0.20438,0.008 -0.40886,0.0195 -0.61329,0.0307 z" />
</g><g
     id="g26"
     transform="translate(-137.40474,-37.949)">
	<path
   id="path25"
   style="fill:#dfeadc"
   d="m 311.50705,232.09449 c 3.31067,8.09161 6.41084,15.63786 7.67055,19.26121 1.293,3.715 5.35262,23.8618 5.35262,23.8618 0,0 10.34713,-2.64846 19.68311,-1.92946 9.12298,0.702 11.60729,0.26328 11.60729,0.26328 2.105,-14.38898 0.0288,-31.144 0.0288,-31.144 -0.26147,-2.78919 -0.55732,-5.51399 -0.86686,-8.20876 -0.0576,-0.004 -0.11539,-0.007 -0.17297,-0.0113 -2.90648,-0.11287 -5.818,-0.10787 -8.71985,-0.35052 -2.59035,-0.16282 -5.19455,-0.25939 -7.76718,-0.59107 -2.091,-0.11784 -4.18185,-0.25335 -6.26585,-0.42653 -2.45919,-0.10942 -4.92508,-0.0939 -7.38248,-0.25792 -1.63225,-0.11415 -3.2519,-0.31457 -4.88168,-0.3963 -2.41919,0.007 -4.88342,-0.13233 -7.02822,-0.13219 -0.41871,-0.003 -0.8383,0.0459 -1.25724,0.0618 z" />
	<path
   id="path26"
   style="fill:#dfeadc"
   d="m 140.22302,272.93607 c 0,0 2.28083,-0.17473 11.40381,-0.87673 9.33598,-0.718 20.0021,3.1582 20.0021,3.1582 0,0 3.97193,-19.79616 5.26393,-23.51116 1.40775,-4.04628 5.15653,-12.87702 9.03257,-22.13754 -0.35356,0.0108 -0.70609,1.7e-4 -1.05993,0.0159 -2.84587,-0.0815 -5.69058,-0.20666 -8.53502,-0.30685 -4.29242,0.0862 -8.5893,0.29874 -12.87697,-0.0837 -2.91753,-0.20402 -5.84735,-0.20916 -8.7658,-0.38792 -2.54068,0.0192 -5.084,-0.0984 -7.61047,0.25583 -1.7819,0.13963 -3.56821,0.22217 -5.3543,0.29958 -0.56142,4.34131 -1.06927,8.79984 -1.50014,13.3961 0,0 -2.10478,15.79129 2.2e-4,30.17825 z" />
</g></g></svg>
