<?xml version="1.0" encoding="UTF-8" standalone="no"?>
<!-- Created with Inkscape (http://www.inkscape.org/) -->

<svg
   version="1.1"
   id="svg1"
   width="45.266666"
   height="47.933334"
   viewBox="0 0 462.66666 489.33334"
   xmlns="http://www.w3.org/2000/svg"
   xmlns:svg="http://www.w3.org/2000/svg">
  <defs
     id="defs1" />
  <g
     id="g1">
    <image
       width="462.66666"
       height="489.33334"
       preserveAspectRatio="none"
       id="image1" />
    <path
       style="fill:#930C03;stroke:none"
       d="m 170,33.333334 h 207.99999 c -6.4766,8.583374 -24.23002,13.477132 -33.80709,18.080241 -28.15956,13.534506 -56.05411,27.623455 -84.19291,41.213461 -8.46156,4.08663 -16.95821,8.113444 -25.33333,12.379644 -3.33364,1.69812 -7.91823,3.12402 -10.07098,6.36267 -3.59119,5.40271 -1.26235,17.63529 -1.26235,23.96399 v 62 V 218 c -0.005,2.62169 0.19499,5.75959 -2.70575,6.93108 -3.14282,1.26926 -7.94877,0.40226 -11.29425,0.40226 H 184.66666 99.999998 72.666665 c -2.423792,0 -7.716202,0.97638 -9.6893,-0.68518 -1.449931,-1.22099 0.208206,-2.99262 1.07459,-3.982 3.074157,-3.51056 6.62504,-6.71167 9.94547,-9.98972 13.557169,-13.3842 27.789925,-26.49589 40.543215,-40.65019 4.53717,-5.03561 2.81498,-15.7346 -5.87398,-13.80866 -6.85019,1.51838 -13.243353,10.8277 -18.094132,15.59569 -14.434209,14.18786 -28.687652,28.59336 -42.956277,42.94753 -4.995603,5.02555 -17.511821,13.38889 -13.46656,21.68878 3.290166,6.75061 12.471509,13.03845 17.756171,18.31122 13.554062,13.52352 27.526586,26.77409 40.598256,40.76235 4.620921,4.94495 13.775282,17.92324 21.433122,13.04476 C 123.14073,302.70478 112.48404,293.1507 108,288.66667 92.925118,273.5918 73.598168,258.7447 61.333332,241.33334 73.80491,238.36408 89.184935,240.66667 102,240.66667 H 183.33333 212 c 2.70796,0 8.17065,-1.02482 10.2644,1.06893 1.82261,1.82261 1.06893,5.92898 1.06893,8.26441 v 22 80 20 c 0,2.20394 0.65421,5.87459 -1.06893,7.59774 -2.49434,2.49434 -10.30955,1.06892 -13.59774,1.06892 H 170 v -82 c 0,-6.57409 1.35115,-26.66357 -11.2711,-21.43776 C 151.12541,280.37688 154,296.16297 154,302.66667 v 69.33334 c 0,6.60437 -2.45895,19.34554 4.67695,23.02881 4.02714,2.07865 10.24826,0.97119 14.65638,0.97119 H 206 c 3.61222,0 14.41361,-1.80339 16.64815,1.54525 2.42344,3.63175 0.68518,12.84244 0.68518,17.12142 v 46 c 0,6.13635 -2.54374,18.75602 5.3359,20.94905 7.11773,1.98104 17.71811,-6.21879 23.99743,-9.06531 21.87881,-9.91805 42.95447,-21.56046 64.69291,-31.76802 21.97579,-10.31897 43.40877,-21.80709 65.42078,-32.03548 7.39888,-3.43807 22.66853,-7.77564 27.12089,-14.80917 4.0249,-6.35823 1.43208,-19.92423 1.43208,-27.27108 v -68 -186 -59.333336 c 0,-9.069458 1.57109,-19.782267 -0.25309,-28.666667 C 409.56859,17.304566 403.33564,18 397.33332,18 h -41.33333 -150.66666 -36 c -4.21172,0 -10.65671,-1.177449 -13.50772,2.755656 C 151.1456,27.211955 154,42.364828 154,50.000001 v 75.333339 c 0,6.91967 -3.67691,29.80987 8,29.071 11.393,-0.72093 8,-21.038 8,-28.40434 V 33.333334 M 393.29422,45.0813 c 3.66101,-0.378784 2.70577,5.343099 2.70577,7.585368 v 26 110.666672 144.66667 37.33333 c 0,3.69686 1.34302,10.76021 -1.06893,13.81482 -4.8669,6.1637 -18.56099,9.36593 -25.48458,12.90792 -22.23311,11.37414 -44.94559,21.80538 -67.25616,33.03137 -13.43036,6.75777 -27.48045,12.67306 -40.66666,19.90589 -5.01152,2.74886 -15.07465,9.81982 -20.76801,9.81221 -3.18304,-0.004 -2.08899,-6.79655 -2.08899,-8.80554 v -28 -120.66667 -130 -36.66667 c 0,-4.36544 -1.43984,-11.82031 0.40226,-15.81482 1.21186,-2.62785 7.09908,-4.40088 9.59774,-5.65019 8.82908,-4.41455 17.82705,-8.49145 26.66667,-12.88224 27.45514,-13.637493 55.0013,-27.151775 82.66666,-40.345623 7.24695,-3.456136 14.58985,-6.974243 21.71708,-10.690349 3.80628,-1.984578 9.29655,-5.759277 13.57715,-6.202148 M 264.66666,242.42798 c -6.97731,0.53618 -7.33122,7.38831 -7.33333,12.90536 -0.006,14.65133 -0.35567,29.35368 0.01,44 0.13184,5.28367 2.52472,10.52372 8.6569,9.86471 7.37669,-0.79277 6.66667,-7.56806 6.66667,-13.19804 v -42 c 0,-5.44182 -0.7132,-12.13198 -8,-11.57203 z"
       id="path1" />
  </g>
</svg>
